# 3ds Max Wavefront OBJ Exporter v0.97b - (c)2007 guruware
# File Created: 07.11.2016 17:44:28

mtllib Mesh_Slash.mtl

#
# object Mesh_Slash
#

v  45.5928 0.0000 -0.0000
v  44.9001 7.9171 0.0000
v  18.1029 3.1920 3.7430
v  18.3821 -0.0000 3.7430
v  42.8432 15.5936 0.0000
v  17.2736 6.2871 3.7430
v  39.4845 22.7964 0.0000
v  15.9194 9.1911 3.7430
v  34.9261 29.3065 0.0000
v  14.0815 11.8158 3.7430
v  29.3065 34.9261 0.0000
v  11.8158 14.0815 3.7430
v  22.7964 39.4845 0.0000
v  9.1911 15.9194 3.7430
v  15.5936 42.8432 0.0000
v  6.2871 17.2736 3.7430
v  7.9171 44.9001 0.0000
v  3.1920 18.1029 3.7430
v  0.0000 45.5928 0.0000
v  -0.0000 18.3821 3.7430
v  -7.9171 44.9001 0.0000
v  -3.1920 18.1029 3.7430
v  -15.5936 42.8432 0.0000
v  -6.2871 17.2736 3.7430
v  -22.7964 39.4845 0.0000
v  -9.1911 15.9194 3.7430
v  -29.3065 34.9261 0.0000
v  -11.8158 14.0815 3.7430
v  -34.9261 29.3065 0.0000
v  -14.0815 11.8158 3.7430
v  -39.4845 22.7964 0.0000
v  -15.9194 9.1911 3.7430
v  -42.8432 15.5937 0.0000
v  -17.2736 6.2871 3.7430
v  -44.9001 7.9171 0.0000
v  -18.1029 3.1920 3.7430
v  -45.5928 0.0000 -0.0000
v  -18.3821 0.0000 3.7430
v  -44.9001 -7.9171 -0.0000
v  -18.1029 -3.1920 3.7430
v  -42.8432 -15.5936 -0.0000
v  -17.2736 -6.2871 3.7430
v  -39.4845 -22.7964 -0.0000
v  -15.9194 -9.1911 3.7430
v  -34.9261 -29.3064 -0.0000
v  -14.0815 -11.8158 3.7430
v  -29.3065 -34.9261 -0.0000
v  -11.8158 -14.0815 3.7430
v  -22.7964 -39.4845 -0.0000
v  -9.1911 -15.9194 3.7430
v  -15.5937 -42.8432 -0.0000
v  -6.2871 -17.2736 3.7430
v  -7.9171 -44.9001 -0.0000
v  -3.1920 -18.1029 3.7430
v  -0.0000 -45.5928 -0.0000
v  -0.0000 -18.3821 3.7430
v  7.9171 -44.9001 -0.0000
v  3.1920 -18.1029 3.7430
v  15.5936 -42.8432 -0.0000
v  6.2870 -17.2736 3.7430
v  22.7964 -39.4845 -0.0000
v  9.1911 -15.9194 3.7430
v  29.3064 -34.9261 -0.0000
v  11.8158 -14.0815 3.7430
v  34.9261 -29.3065 -0.0000
v  14.0815 -11.8158 3.7430
v  39.4845 -22.7964 -0.0000
v  15.9194 -9.1911 3.7430
v  42.8432 -15.5937 -0.0000
v  17.2736 -6.2871 3.7430
v  44.9001 -7.9171 -0.0000
v  18.1029 -3.1920 3.7430
# 72 vertices

vn 0.1363 -0.0000 0.9907
vn 0.1342 0.0237 0.9907
vn 0.1281 0.0466 0.9907
vn 0.1180 0.0681 0.9907
vn 0.1044 0.0876 0.9907
vn 0.0876 0.1044 0.9907
vn 0.0681 0.1180 0.9907
vn 0.0466 0.1281 0.9907
vn 0.0237 0.1342 0.9907
vn 0.0000 0.1363 0.9907
vn -0.0119 0.1363 0.9906
vn -0.0354 0.1321 0.9906
vn -0.0466 0.1281 0.9907
vn -0.0681 0.1180 0.9907
vn -0.0876 0.1044 0.9907
vn -0.1044 0.0876 0.9907
vn -0.1180 0.0681 0.9907
vn -0.1281 0.0466 0.9907
vn -0.1342 0.0237 0.9907
vn -0.1363 -0.0000 0.9907
vn -0.1342 -0.0237 0.9907
vn -0.1281 -0.0466 0.9907
vn -0.1180 -0.0681 0.9907
vn -0.1044 -0.0876 0.9907
vn -0.0876 -0.1044 0.9907
vn -0.0681 -0.1180 0.9907
vn -0.0466 -0.1281 0.9907
vn -0.0237 -0.1342 0.9907
vn -0.0000 -0.1363 0.9907
vn 0.0237 -0.1342 0.9907
vn 0.0466 -0.1281 0.9907
vn 0.0681 -0.1180 0.9907
vn 0.0876 -0.1044 0.9907
vn 0.1044 -0.0876 0.9907
vn 0.1180 -0.0681 0.9907
vn 0.1281 -0.0466 0.9907
vn 0.1342 -0.0237 0.9907
# 37 vertex normals

vt 0.7500 0.0000 0.0000
vt 0.7778 0.0000 0.0000
vt 0.7778 1.0000 0.0000
vt 0.7500 1.0000 0.0000
vt 0.8056 0.0000 0.0000
vt 0.8056 1.0000 0.0000
vt 0.8333 0.0000 0.0000
vt 0.8333 1.0000 0.0000
vt 0.8611 0.0000 0.0000
vt 0.8611 1.0000 0.0000
vt 0.8889 0.0000 0.0000
vt 0.8889 1.0000 0.0000
vt 0.9167 0.0000 0.0000
vt 0.9167 1.0000 0.0000
vt 0.9444 0.0000 0.0000
vt 0.9444 1.0000 0.0000
vt 0.9722 0.0000 0.0000
vt 0.9722 1.0000 0.0000
vt 1.0000 0.0000 0.0000
vt 1.0000 1.0000 0.0000
vt 1.0278 0.0000 0.0000
vt 1.0278 1.0000 0.0000
vt 0.0278 0.0000 0.0000
vt 0.0556 0.0000 0.0000
vt 0.0556 1.0000 0.0000
vt 0.0278 1.0000 0.0000
vt 0.0833 0.0000 0.0000
vt 0.0833 1.0000 0.0000
vt 0.1111 0.0000 0.0000
vt 0.1111 1.0000 0.0000
vt 0.1389 0.0000 0.0000
vt 0.1389 1.0000 0.0000
vt 0.1667 0.0000 0.0000
vt 0.1667 1.0000 0.0000
vt 0.1944 0.0000 0.0000
vt 0.1944 1.0000 0.0000
vt 0.2222 0.0000 0.0000
vt 0.2222 1.0000 0.0000
vt 0.2500 0.0000 0.0000
vt 0.2500 1.0000 0.0000
vt 0.2778 0.0000 0.0000
vt 0.2778 1.0000 0.0000
vt 0.3056 0.0000 0.0000
vt 0.3056 1.0000 0.0000
vt 0.3333 0.0000 0.0000
vt 0.3333 1.0000 0.0000
vt 0.3611 0.0000 0.0000
vt 0.3611 1.0000 0.0000
vt 0.3889 0.0000 0.0000
vt 0.3889 1.0000 0.0000
vt 0.4167 0.0000 0.0000
vt 0.4167 1.0000 0.0000
vt 0.4444 0.0000 0.0000
vt 0.4444 1.0000 0.0000
vt 0.4722 0.0000 0.0000
vt 0.4722 1.0000 0.0000
vt 0.5000 0.0000 0.0000
vt 0.5000 1.0000 0.0000
vt 0.5278 0.0000 0.0000
vt 0.5278 1.0000 0.0000
vt 0.5556 0.0000 0.0000
vt 0.5556 1.0000 0.0000
vt 0.5833 0.0000 0.0000
vt 0.5833 1.0000 0.0000
vt 0.6111 0.0000 0.0000
vt 0.6111 1.0000 0.0000
vt 0.6389 0.0000 0.0000
vt 0.6389 1.0000 0.0000
vt 0.6667 0.0000 0.0000
vt 0.6667 1.0000 0.0000
vt 0.6944 0.0000 0.0000
vt 0.6944 1.0000 0.0000
vt 0.7222 0.0000 0.0000
vt 0.7222 1.0000 0.0000
# 74 texture coords

g Mesh_Slash
usemtl Default
s 8
f 1/1/1 2/2/2 3/3/2 4/4/1 
f 2/2/2 5/5/3 6/6/3 3/3/2 
f 5/5/3 7/7/4 8/8/4 6/6/3 
f 7/7/4 9/9/5 10/10/5 8/8/4 
f 9/9/5 11/11/6 12/12/6 10/10/5 
f 11/11/6 13/13/7 14/14/7 12/12/6 
f 13/13/7 15/15/8 16/16/8 14/14/7 
f 15/15/8 17/17/9 18/18/9 16/16/8 
f 17/17/9 19/19/10 20/20/10 18/18/9 
f 19/19/10 21/21/11 22/22/11 20/20/10 
f 21/23/12 23/24/13 24/25/13 
f 24/25/13 22/26/12 21/23/12 
f 23/24/13 25/27/14 26/28/14 24/25/13 
f 25/27/14 27/29/15 28/30/15 26/28/14 
f 27/29/15 29/31/16 30/32/16 28/30/15 
f 29/31/16 31/33/17 32/34/17 30/32/16 
f 31/33/17 33/35/18 34/36/18 32/34/17 
f 33/35/18 35/37/19 36/38/19 34/36/18 
f 35/37/19 37/39/20 38/40/20 36/38/19 
f 37/39/20 39/41/21 40/42/21 38/40/20 
f 39/41/21 41/43/22 42/44/22 40/42/21 
f 41/43/22 43/45/23 44/46/23 42/44/22 
f 43/45/23 45/47/24 46/48/24 44/46/23 
f 45/47/24 47/49/25 48/50/25 46/48/24 
f 47/49/25 49/51/26 50/52/26 48/50/25 
f 49/51/26 51/53/27 52/54/27 50/52/26 
f 51/53/27 53/55/28 54/56/28 52/54/27 
f 53/55/28 55/57/29 56/58/29 54/56/28 
f 55/57/29 57/59/30 58/60/30 56/58/29 
f 57/59/30 59/61/31 60/62/31 58/60/30 
f 59/61/31 61/63/32 62/64/32 60/62/31 
f 61/63/32 63/65/33 64/66/33 62/64/32 
f 63/65/33 65/67/34 66/68/34 64/66/33 
f 65/67/34 67/69/35 68/70/35 66/68/34 
f 67/69/35 69/71/36 70/72/36 68/70/35 
f 69/71/36 71/73/37 72/74/37 70/72/36 
f 71/73/37 1/1/1 4/4/1 72/74/37 
# 35 polygons - 2 triangles

